<?xml version="1.0" encoding="UTF-8" standalone="no"?>
<!-- Created with Inkscape (http://www.inkscape.org/) -->

<svg
   version="1.1"
   id="svg1"
   width="320"
   height="200"
   viewBox="0 0 320 200"
   sodipodi:docname="ikonka.svg"
   inkscape:version="1.4.3 (0d15f75, 2025-12-25)"
   xmlns:inkscape="http://www.inkscape.org/namespaces/inkscape"
   xmlns:sodipodi="http://sodipodi.sourceforge.net/DTD/sodipodi-0.dtd"
   xmlns="http://www.w3.org/2000/svg"
   xmlns:svg="http://www.w3.org/2000/svg">
  <defs
     id="defs1" />
  <sodipodi:namedview
     id="namedview1"
     pagecolor="#ffffff"
     bordercolor="#000000"
     borderopacity="0.25"
     inkscape:showpageshadow="2"
     inkscape:pageopacity="0.0"
     inkscape:pagecheckerboard="0"
     inkscape:deskcolor="#d1d1d1"
     inkscape:zoom="7.47"
     inkscape:cx="124.23025"
     inkscape:cy="54.417671"
     inkscape:window-width="1920"
     inkscape:window-height="986"
     inkscape:window-x="-11"
     inkscape:window-y="-11"
     inkscape:window-maximized="1"
     inkscape:current-layer="g1" />
  <g
     inkscape:groupmode="layer"
     inkscape:label="Image"
     id="g1">
    <path
       style="fill:#000000"
       d="m 236.73659,191.89886 -5.76341,-0.63751 -6.39527,-3.14838 -6.39527,-3.14838 -5.50653,-5.94771 -5.50654,-5.94772 -2.16382,-5.78334 -2.16382,-5.78334 -0.54942,-6.55346 -0.54942,-6.55345 1.69759,-5.94779 1.69759,-5.94778 3.16465,-5.28712 3.16464,-5.28711 5.01622,-3.95995 5.01622,-3.95995 1.93484,-1.37468 1.93484,-1.37467 -1.81633,-4.87826 -1.81634,-4.87826 -0.6185,-0.68936 -0.61851,-0.68936 -19,4.87366 -19,4.87365 -9.12713,3.01095 -9.12713,3.01095 -10.37287,4.05588 -10.37287,4.05587 -13.7458,6.74888 -13.74579,6.74888 -0.41168,2 -0.41167,2 -1.09653,5.34359 -1.09652,5.3436 -3.246,6.62565 -3.24601,6.62565 -6.5,6.6473 -6.5,6.64729 -6,3.02103 -6,3.02102 -5.431501,1.61243 L 70.636998,192 H 61.5 52.363002 L 46.931501,190.40462 41.5,188.80924 l -5.929376,-3.13955 -5.929377,-3.13955 -6.237818,-6.23782 -6.237817,-6.23782 -3.509297,-7.01467 -3.509296,-7.01467 -1.1824557,-5.69586 -1.1824553,-5.69585 0.4521567,-9.56673 0.4521566,-9.56672 2.2623757,-5.84017 2.262377,-5.84017 4.209271,-6.15983 L 21.629717,101.5 27.46778,96.788245 33.305844,92.07649 37.902922,89.912697 42.5,87.748905 l 5,-1.523307 5,-1.523306 9,-0.01465 9,-0.01465 5.5,1.621276 5.5,1.621276 5.688091,3.083802 5.68809,3.083803 5.242042,4.708423 5.242037,4.708422 3.75451,5.8039 3.7545,5.80391 0.31536,0.91009 0.31537,0.9101 5,-1.27505 5,-1.27506 0.64147,-5.93894 0.64146,-5.93895 0.10854,-4.660596 0.10853,-4.660595 -8.76533,-5.530739 -8.76534,-5.53074 -1.49846,-0.575012 -1.49845,-0.575013 -1.89368,3.516348 L 98.685059,88 96.842529,88 H 95 V 86.08104 84.162079 L 96.731223,81.145596 98.462447,78.129114 97.981223,77.675767 97.5,77.22242 88.453486,71.755919 79.406973,66.289417 75.453486,64.958158 71.5,63.626898 40.5,63.563449 9.5,63.5 9.1854742,59.680212 8.8709484,55.860424 10.176089,54.287826 11.48123,52.715227 41.990615,53.245368 72.5,53.775509 l 6.35113,2.156941 6.351131,2.15694 9.04184,5.45091 9.041839,5.450911 1.32336,-1.745606 L 105.93266,65.5 103.71633,64.013773 101.5,62.527546 95.868372,57.22446 90.236744,51.921375 87.134051,46.100128 84.031359,40.278881 83.035488,33.38944 82.039617,26.5 82.019809,18.75 82,11 h 1 1 v 1.518487 1.518488 L 87.621963,25.268487 91.243927,36.5 l 2.889652,5.744494 2.889653,5.744495 5.462268,4.287145 5.46226,4.287145 12.01746,7.292017 12.01745,7.292016 12.25867,9.059627 12.25866,9.059627 3.21788,1.366717 3.21788,1.366717 5.78212,-0.08438 5.78212,-0.08438 5.75,-0.718311 5.75,-0.718312 v 0.684479 0.684478 l -7.46971,2.368216 -7.46971,2.368216 -0.43777,1.090684 -0.43777,1.090684 0.75389,1.219821 0.75389,1.219821 8.15333,-2.081729 8.15333,-2.081729 10.23289,-6.509118 10.23288,-6.509118 4.94888,-1.469658 L 218.363,81 l 15.00465,0 15.00464,0 21.06385,-5.640813 21.06386,-5.640812 2.65557,-0.458828 2.65557,-0.458827 1.22143,-6.473356 1.22144,-6.473355 L 297.127,54.727004 296,53.6 V 52.8 52 l 6.58333,0 6.58334,0 -0.41035,1.25 -0.41034,1.25 -3.02215,0.302108 -3.02215,0.302109 -1.25349,7.0141 -1.25349,7.0141 4.12887,3.53416 4.12888,3.534161 1.47377,2.849971 L 311,81.90068 v 4.148531 4.148531 l -1.64073,3.457575 -1.64072,3.457576 -3.36566,2.56711 -3.36565,2.567107 -4.37446,0.49307 -4.37446,0.49306 -0.94356,5.85898 -0.94356,5.85898 0.93727,0.93727 0.93727,0.93727 -0.53708,0.86899 -0.53707,0.869 -5.82579,-0.14776 L 279.5,118.2682 V 116.8841 115.5 l 3.11935,0.31166 3.11935,0.31166 0.53911,-1.40489 0.5391,-1.40489 0.68477,-5.48068 0.68476,-5.48068 -2.54835,-1.66974 -2.54836,-1.669752 -1.99481,-2.141174 -1.9948,-2.141174 -6.30006,0.711991 -6.30006,0.711991 -15,2.422537 -15,2.422541 -4.75,1.10004 -4.75,1.10004 v 0.81736 0.81735 l 1.97529,4.60816 1.97529,4.60816 2.77471,-0.77526 L 236.5,112.5 l 7,0.14128 7,0.14128 5.75209,2.18135 5.75208,2.18135 4.82582,3.81459 4.82581,3.81459 3.58074,5.39461 3.58074,5.39461 1.71029,5.88319 1.71029,5.8832 -0.44352,7.66155 -0.44352,7.66155 -3.13469,6.69869 -3.1347,6.69869 -5.26628,5.12952 -5.26629,5.12952 -5.36134,2.37104 -5.36134,2.37104 -5.66309,0.74237 -5.66309,0.74236 z m 2.60512,-8.14886 0.55853,-2.25 0.61106,-12 0.61107,-12 -1.11124,1.75065 -1.11123,1.75064 -3.43155,10.74936 -3.43155,10.74935 -0.0184,1.18358 -0.0184,1.18358 2.75,0.41659 2.75,0.41659 0.64159,0.14983 0.64159,0.14983 z m 4.26528,0.66821 L 243,182.83643 242.98469,177.16821 242.96937,171.5 242,173 l -0.96937,1.5 -0.0153,5.75 L 241,186 h 1.60699 1.60699 z m 7.00499,0.59544 1.11198,-0.0137 -3.23627,-11.25 -3.23626,-11.25 -1.1472,-2.5 -1.14719,-2.5 0.56724,10.5 0.56724,10.5 0.59482,3.82987 0.59482,3.82987 2.10942,-0.56622 2.10942,-0.56621 z M 57.983421,183.25 l -0.01658,-0.75 1.653896,-16.67097 1.653895,-16.67096 -0.714428,-1.82904 -0.714427,-1.82903 -1.502413,2.84082 -1.502412,2.84082 -4.874323,15.122 -4.874323,15.122 0.203847,0.18742 0.203846,0.18743 4.5,0.99266 4.5,0.99267 0.75,0.10709 L 58,184 Z m 5.314111,-7 -0.548239,-7.75 -0.788469,-0.86382 -0.788469,-0.86382 -0.640076,5.86382 -0.640076,5.86382 -0.05679,2 -0.05679,2 0.110691,0.75 L 60,184 h 1.922885 1.922886 z m 8.385173,6.25998 3.182704,-0.63933 -1.435992,-4.68532 -1.435991,-4.68533 -1.010469,-3.65794 -1.010469,-3.65795 -3.092762,1.15795 -3.092763,1.15794 0.597827,5 0.597826,5 0.0087,3.31739 0.0087,3.31739 1.75,-0.49274 1.75,-0.49273 z m 160.966995,-6.13336 2.31603,-6.62305 -0.51871,-0.83929 -0.51871,-0.83929 2.53584,-5.00425 L 239,158.06649 v -0.59226 -0.59226 l -0.98683,0.60989 -0.98684,0.6099 -8.01316,9.56533 L 221,177.23242 v 0.76878 0.76878 l 2.58676,1.69491 2.58677,1.69492 0.29471,-0.32991 0.29472,-0.3299 3.184,-6.35119 3.18399,-6.35119 0.5,0.5 0.5,0.5 -3.09993,6.14093 -3.09993,6.14093 0.63459,1.02679 0.63459,1.02679 0.5667,-0.56669 0.56669,-0.5667 z m 22.44302,6.34008 -0.0573,-0.7333 -2.97575,-6.2417 -2.97576,-6.2417 -0.042,1.07186 -0.042,1.07186 1.58537,4.92814 1.58538,4.92814 0.41515,1.33316 0.41515,1.33316 1.07448,-0.35816 L 255.15,183.45 Z m 5.44246,-2.33171 L 263,178.76998 v -0.78931 -0.78931 L 255.66846,168.34568 248.33691,159.5 246.66846,158.12756 245,156.75511 v 0.86902 0.86902 l 5.70213,11.75343 L 256.40427,182 h 0.83305 0.83305 z M 48.429409,172.25 l 2.841644,-8.75 0.470869,-1.5 0.470869,-1.5 -1.919978,3 -1.919978,3 -3.436418,6.28609 -3.436417,6.28608 1.5,0.9486 1.5,0.9486 0.543882,0.0153 0.543882,0.0153 z m 31.033269,7.81039 0.580712,-0.93961 -3.740981,-7.56039 L 72.561429,164 h -0.732883 -0.732884 l 1.455456,4.75 1.455456,4.75 1.035257,3.75 1.035257,3.75 h 1.402439 1.402439 z m 7.055187,-3.71455 3.982135,-2.65417 0.38038,-0.30955 0.38038,-0.30955 -5.337531,-6.28628 L 80.585697,160.5 80.385779,160.17626 80.185861,159.85253 77.09293,161.45194 74,163.05136 v 0.45778 0.45777 l 3.719285,7.51655 L 81.438571,179 h 0.54858 0.54858 z M 44.444212,170.75 l 3.865082,-7.25 3.778702,-6.56035 3.778702,-6.56035 0.716388,-2.93965 0.716387,-2.93965 -2.304224,2 -2.304225,2 -9.845512,11.77979 L 33,172.05958 v 0.98491 0.98491 l 3.25,1.98156 3.25,1.98156 0.539565,0.004 0.539564,0.004 z m 179.922688,0.75 4.74836,-5.5 -0.80763,0.0384 -0.80763,0.0384 -4.89845,4.31687 -4.89845,4.31687 0.70746,1.14471 0.70747,1.14471 h 0.25026 0.25026 z m 37.05894,-1.1502 -5.92584,-5.30127 0.83865,-0.0243 0.83865,-0.0243 5.16135,4.52957 5.16135,4.52957 1.75,-2.14035 1.75,-2.14036 v -0.83292 -0.83291 l -10.12451,-5.68248 -10.12451,-5.68248 -2.12549,-0.44497 -2.12549,-0.44497 4.5,4.17887 4.5,4.17888 v 0.8789 0.87891 l 4.34523,5.44544 4.34523,5.44545 1.58061,-0.60654 1.5806,-0.60654 z m -28.5189,-10.00148 4.59306,-4.15168 -0.50147,-0.51646 -0.50147,-0.51645 -12.33664,5.95919 -12.33664,5.95919 1.41036,2.20895 1.41036,2.20894 0.74508,1.26345 0.74508,1.26346 6.08961,-4.76346 6.08961,-4.76345 z M 41.516657,159.5 l 4.925524,-6 -2.47109,2.09691 -2.471091,2.09691 -6.640245,5.54856 -6.640245,5.54856 1.506696,1.50669 1.506697,1.5067 2.679115,-3.15216 2.679116,-3.15217 z m 53.479611,9.62756 -0.0037,-0.62756 -6.035235,-4.8777 -6.035235,-4.8777 -0.57529,0.57529 -0.57529,0.57529 5.263206,6.05124 5.263206,6.05124 1.351051,-1.12128 L 95,169.75511 Z m 6.002712,-8.82451 -0.001,-0.80305 -4.748987,-2.63638 -4.748983,-2.63638 -3.269741,1.57716 -3.269742,1.57715 0.269742,0.80424 0.269741,0.80424 5.438222,4.46013 5.438222,4.46012 2.311778,-3.40209 L 101,161.10611 Z m -61.15371,-3.04284 11.65473,-9.7398 1.716731,-2.0102 1.71673,-2.01021 0.03327,-0.72525 L 55,142.0495 l -2.75,1.02012 -2.75,1.02012 -14,7.09056 -14,7.09057 -0.32491,0.27281 -0.32491,0.27281 2.707796,4.09175 L 26.265773,167 h 0.962383 0.962383 z M 273,165.58037 v -1.41964 l -5.25,-1.72602 -5.25,-1.72602 -1.5,-0.44946 -1.5,-0.44946 6,3.56484 6,3.56484 0.75,0.0303 L 273,167 Z m -54,-3.18264 6.5,-3.50523 -1.5,0.41804 -1.5,0.41805 -5.75,1.66364 -5.75,1.66364 V 164.52793 166 l 0.75,-0.0485 0.75,-0.0485 z M 68.515705,160.07151 67.841089,157 h -0.861527 -0.861528 l -0.548007,0.88669 -0.548006,0.8867 1.488989,1.23575 L 68,161.24489 v 1.54422 1.54422 l 0.595161,-0.59516 0.59516,-0.59516 z M 274.39301,161.41821 275,159.83643 v -2.25518 -2.25518 l -10.75,-1.16448 -10.75,-1.16448 -2.95,0.001 -2.95,0.001 1.07863,1.07863 1.07863,1.07863 11.37137,3.8432 11.37137,3.84319 0.64301,0.0782 0.64301,0.0782 z M 70.666667,160.33333 70,159.66667 V 161 162.33333 L 70.666667,161.66667 71.333333,161 Z M 224,157.95206 l 10.5,-3.09568 0.95,-0.92819 0.95,-0.92819 -2.95,-0.001 -2.95,-0.001 -10.75,1.16448 -10.75,1.16448 v 1.75518 1.75518 l 0.61842,1.61158 0.61843,1.61159 1.63157,-0.50593 1.63158,-0.50594 z M 76.8851,159.60708 79.270199,158.28503 78.1351,157.5835 77,156.88197 v -1.09597 -1.09598 l 2,1.80998 2,1.80998 v -0.9967 -0.9967 l 4.123005,-1.23529 4.123005,-1.23528 -0.873005,-0.84836 L 87.5,152.1493 80.365411,148.12267 73.230822,144.09604 70.365411,143.48806 67.5,142.88008 l 7,6.55122 7,6.55121 -1.190983,0.009 -1.190983,0.009 -0.628115,-1.01631 -0.628116,-1.01631 -0.797254,0.49273 -0.797255,0.49273 -1.754182,-1.93835 -1.754181,-1.93835 -1.731632,2.13848 -1.731632,2.13847 1.602166,2.81713 1.602167,2.81713 1,-0.0291 1,-0.0291 z M 53,159.5 V 159 H 52.5 52 v 0.5 0.5 h 0.5 0.5 z m 13.406813,-6.91778 -0.62146,-2.08222 -1.289898,-1.36151 -1.289898,-1.3615 -0.57016,1.8615 -0.57016,1.86151 0.39087,2 0.39087,2 0.07651,1.40499 0.07651,1.40499 2.014136,-1.82277 2.014136,-1.82277 z M 103,157.58179 v -0.41822 l 0.54148,-1.41107 0.54148,-1.41107 -3.93681,-1.1795 -3.936808,-1.17949 -1.68017,0.64474 -1.68017,0.64474 3.825499,2.26978 3.825499,2.26977 1.25,0.0943 L 103,158 Z M 30.505017,152.02109 40.5,147.04219 39.595634,147.02109 38.691269,147 l -9.095635,2.66631 -9.095634,2.6663 -0.782783,0.66648 -0.782782,0.66648 0.639771,1.66721 L 20.213978,157 h 0.148028 0.148028 z m 188.869983,0.85548 4.125,-0.12343 -6.42155,-0.91773 -6.42156,-0.91773 -1.39182,0.5341 -1.39183,0.53409 0.68466,1.10781 0.68466,1.10781 3.00372,-0.60075 L 215.25,153 Z M 276,152.36071 v -1.63929 l -5.25,0.6306 -5.25,0.6306 -2.5,0.17168 -2.5,0.17169 5.5,0.67401 5.5,0.67401 2.25,0.16299 L 276,154 Z m -170.55974,-1.97871 0.65708,-2.618 -0.42487,-0.42486 -0.42486,-0.42486 -3.7288,1.77814 -3.728794,1.77814 2.854994,1.21962 2.85499,1.21961 0.64159,0.0451 0.64159,0.0451 z M 93,151.125 v -0.875 l -2.75,-0.55497 -2.75,-0.55497 -2,-0.63138 -2,-0.63139 3.5,2.01944 3.5,2.01944 1.25,0.0419 L 93,152 Z m 143,-0.0272 v -0.90218 l -3.25,-1.17328 -3.25,-1.17328 -9.43012,-2.94213 -9.43011,-2.94213 -0.80457,1.26759 -0.80457,1.26758 -0.0153,2.61363 -0.0153,2.61364 10.25,0.98024 10.25,0.98024 3.25,0.15613 L 236,152 Z m 33.5,-0.96232 6,-0.63551 -0.34725,-3 -0.34725,-3 -0.33656,-0.35048 -0.33656,-0.35048 -7.81619,2.21286 -7.81619,2.21285 -4.73824,1.46409 -4.73824,1.46408 -0.63038,1.01998 -0.63037,1.01997 7.86861,-0.71092 7.86862,-0.71092 z m -233.713587,-3.67194 15.52137,-4.53643 1.596108,-0.89632 L 54.5,140.1345 52.770027,139.46795 51.040053,138.80139 34.755579,140.4007 18.471104,142 h -1.141932 -1.141933 l 0.34615,1.75 0.346149,1.75 0.579283,2.75 0.579283,2.75 h 1.11347 1.11347 z m 35.168276,1.98183 -1.2902,-1.55459 -1.832245,-0.98059 L 66,144.92963 v 1.45185 1.45185 l 2.75,1.00439 2.75,1.00439 0.372445,0.0789 L 72.244889,150 Z M 101.02852,146.9856 107,143.97121 V 142.9856 142 l -0.75,0.02 -0.75,0.02 -17.252837,-1.68385 -17.252837,-1.68386 -0.680497,0.6805 -0.680496,0.68049 1.153586,1.15359 1.153585,1.15358 11.279748,3.74211 11.279748,3.7421 0.278517,0.0876 0.278516,0.0876 z m 135.46542,1.00459 -0.6241,-1.0098 -9.63555,-8.10153 -9.63556,-8.10153 -1.79937,2.22212 L 213,135.22157 v 0.87482 0.87482 l 6.10119,3.07987 6.10119,3.07987 -0.55567,0.55567 -0.55567,0.55568 -5.5882,-3.15379 -5.5882,-3.15379 -0.95732,0.59166 L 211,139.11803 v 0.75836 0.75837 l 5.75,1.83643 5.75,1.83644 2.5,0.18095 2.5,0.18094 4,2.12105 4,2.12104 0.80902,0.0442 0.80901,0.0442 z m 24.18449,-4.73138 11.32157,-5.74119 -0.005,-0.50881 -0.005,-0.50881 -2.24504,-2.78668 -2.24503,-2.78669 -9.65604,7.98014 -9.65604,7.98015 -0.65298,1.05654 L 246.88197,149 h 1.23744 1.23745 z M 83,147.5 V 147 H 82.5 82 v 0.5 0.5 h 0.5 0.5 z m 166.20969,-3.25 2.58387,-2.75 5.58972,-7 5.58973,-7 -0.29131,-0.91442 -0.29131,-0.91442 -2.08392,-1.38366 -2.08391,-1.38367 -1.97865,3.29808 -1.97865,3.29809 -4.71361,8.75 -4.71362,8.75 h 0.8939 0.89389 z m -0.26124,-11.59656 3.94525,-11.74336 -2.51195,-0.95504 L 247.8698,119 h -1.30709 -1.30709 l -0.57414,3.75 -0.57413,3.75 -0.67379,10 -0.67379,10 1.12172,-1.0516 1.12171,-1.0516 z M 268.25,143.27111 274,141.6721 v -0.77703 -0.77704 l -0.9597,-0.59312 -0.95969,-0.59313 -6.79031,3.58712 -6.7903,3.58713 2,-0.61796 2,-0.61795 z m -35.95587,-7.52111 -3.49917,-9.25 -0.51411,-1.75 -0.51411,-1.75 -1.13337,0.0222 -1.13337,0.0222 -2.47231,1.89976 -2.47232,1.89976 4.33086,5.13613 4.33085,5.13613 -0.4656,0.4656 -0.46559,0.4656 -4.25635,-5.01266 -4.25634,-5.01265 -0.93939,0.58057 -0.93938,0.58057 0.30278,0.769 0.30279,0.769 4.82526,4.15186 4.82527,4.15186 0.85955,-0.53123 0.85956,-0.53124 2.68387,3.51874 2.68387,3.51873 h 0.27796 0.27795 z M 33,137.86167 26.5,137.14146 21.25,136.562 16,135.98253 v 1.84207 1.84207 l 0.426215,0.42621 0.426214,0.42622 11.323786,-0.96862 L 39.5,138.58187 Z m 74,0.55887 v -2.57945 l -2.75,0.53507 -2.75,0.53508 -9,0.75487 -9,0.75487 11,1.13826 11,1.13827 0.75,0.15124 L 107,141 Z m 133.52555,-6.17054 -0.64509,-7.75 -0.51969,-2.75 -0.51968,-2.75 -1.17055,0.0153 -1.17054,0.0153 -1.354,0.85798 -1.35401,0.85798 3.35401,9.62182 3.354,9.62183 0.33532,0.005 0.33532,0.005 z m -113.50865,1.07538 9.4831,-5.17463 11,-4.48419 11,-4.48419 13.73481,-4.553 13.73481,-4.553 16.76519,-4.16928 16.76519,-4.16928 0.24708,-0.19932 0.24709,-0.19933 -1.59109,-4.669578 L 216.812,92 h -1.93812 -1.93812 l -3.40123,1.421125 -3.40123,1.421125 -6.67818,5.118545 -6.67818,5.118545 -4.87167,2.46866 -4.87167,2.46866 -5.2668,1.39849 -5.2668,1.39848 -1.58036,0.63507 -1.58035,0.63508 -6.78865,-1.39607 -6.78865,-1.39606 -20.131,6.44908 -20.13099,6.44909 -0.6406,0.65509 -0.64061,0.65509 1.00729,6.79444 1.00728,6.79444 0.65022,-0.29444 0.65022,-0.29444 z m 134.5631,1.06212 5.39898,-4.61249 -0.54851,-0.88751 -0.5485,-0.8875 h -0.75026 -0.75026 l -4.74835,5.5 -4.74836,5.5 h 0.64814 0.64814 z m -209.102304,2.69926 1.977696,-0.77267 -1.977696,-1.04868 -1.977696,-1.04867 -15.825627,-5.19941 -15.825628,-5.19941 -0.33616,0.34104 -0.33616,0.34104 -0.929315,5.12685 -0.929314,5.12685 15.091102,1.47928 15.091102,1.47928 2,0.0736 2,0.0736 z m 41.814667,-1.21866 12.792367,-1.20586 -0.65918,-3.08112 -0.65918,-3.08112 -0.36143,-0.39491 -0.36143,-0.39491 -14.745592,4.70208 -14.745595,4.70208 -0.526162,0.57549 -0.526161,0.57549 3.5,-0.59569 3.5,-0.59568 z M 53.554375,131.75 52.062644,129.5 48.542547,126.71632 45.02245,123.93265 45.261225,123.0787 45.5,122.22476 l -7,-8.60396 -7,-8.60397 -0.627555,-0.008 -0.627556,-0.008 -1.1416,1.37554 -1.141601,1.37555 8.550781,7.2595 8.550782,7.25949 -0.499602,0.4996 -0.499602,0.49961 -8.501618,-7.15915 -8.501617,-7.15915 -2.676745,4.04483 -2.676744,4.04484 0.396338,0.31144 0.396339,0.31144 14,7.53941 14,7.53941 1.5,0.54987 1.5,0.54988 0.773053,0.0789 0.773053,0.0789 z m 200.292275,-3.88918 3.17332,-5.63918 -1.44795,-0.55563 -1.44795,-0.55563 -1.70769,5.19481 -1.70769,5.19481 -0.51368,1.5 -0.51367,1.5 0.496,-0.5 0.49599,-0.5 z m -10.63541,-3.61144 0.28876,-5.25062 -1.25,6.2e-4 L 241,119 l 0.0137,4.75 0.0137,4.75 0.71584,2.5 0.71584,2.5 0.23174,-2 0.23175,-2 z M 49.632484,113.34992 42.060514,98 H 41.262391 40.464269 L 36.732135,100.53605 33,103.0721 v 0.89574 0.89573 l 8.155346,9.81821 8.155345,9.81822 3.594655,3.80711 3.594654,3.80711 0.352227,-1.70719 0.352228,-1.7072 z M 67.5,131 l 0.618034,-1 h -0.5 -0.5 L 66.5,131 l -0.618034,1 h 0.5 0.5 z m 16.45172,-4.65928 0.54828,-0.58918 -2,0.57901 -2,0.57901 -4.75,1.16394 -4.75,1.16393 v 0.77642 0.77643 l 6.20172,-1.93019 6.201719,-1.9302 z m -22.971227,-0.0907 -0.01951,-3.75 -1.470504,-13 -1.470503,-13 -0.01,-1.795313 -0.01,-1.795313 -3.75,0.666604 -3.75,0.666604 -0.841756,0.770466 -0.841757,0.770465 4.218349,14.839027 4.218348,14.83903 1.033923,2.26922 L 59.32103,130 H 60.160515 61 Z M 70.964542,111.60639 76,96.498052 V 95.83189 95.165728 L 70.854073,94.062124 65.708146,92.958521 65.475774,93.22926 65.243402,93.5 l -1.482837,16.42301 -1.482837,16.42302 0.516433,1.97484 0.516434,1.97485 1.309245,-1.7905 1.309244,-1.7905 z M 31.5,124.02401 l -9,-4.94713 -1.143011,-0.0384 -1.143011,-0.0384 -0.587278,1.53042 -0.587277,1.53042 2.230289,0.99383 2.230288,0.99383 7,2.35821 7,2.3582 1.5,0.10312 1.5,0.10311 z M 81.164418,115.80472 91.209736,103.87385 89.354868,102.49282 87.5,101.1118 85.251507,99.887725 83.003013,98.663653 82.666077,99.081827 82.329141,99.5 l -4.757264,8.82397 -4.757263,8.82398 -0.512484,-0.51249 -0.512484,-0.51248 4.855177,-9.09524 L 81.5,97.932505 80,96.981565 78.5,96.030626 77.930845,96.015313 77.36169,96 l -2.843492,9.25 -2.843491,9.25 -0.174028,2.5 -0.174028,2.5 -2.163325,4.21016 L 67,127.92032 v 0.44622 0.44622 l 2.05955,-0.53858 2.05955,-0.53859 z m 5.700542,7.63863 9.63504,-2.55664 2.75,-1.06468 2.75,-1.06467 v -0.44442 -0.44442 l -1.14909,-2.18426 -1.149097,-2.18426 -1.739099,-2.24272 -1.739098,-2.24272 -9.861808,8.11642 L 76.5,125.24739 76.083333,125.6237 75.666667,126 h 0.781626 0.781627 z m 5.536468,-13.13488 2.901427,-2.43419 -1.627618,-1.62761 -1.627618,-1.62762 -0.345685,0.44047 -0.345684,0.44048 -7.410826,9 -7.410826,9 6.482701,-5.37867 L 89.5,112.74266 Z M 50.330123,106.47485 47.776621,97.5 l -0.821093,-0.882783 -0.821093,-0.882782 -1.574794,0.604305 -1.574795,0.604305 4.713675,9.489045 4.713674,9.48905 0.235715,-0.23572 0.235715,-0.23571 z M 63.30193,99.25 63.810344,93 H 61.651637 59.49293 l 0.953018,11.25 0.953017,11.25 0.697276,-5 0.697275,-5 z m 74.99721,9.73037 6.79914,-2.17614 -8.12052,-4.9974 -8.12051,-4.997412 -0.53607,0.536064 -0.53606,0.536063 0.70213,6.991505 0.70213,6.99151 1.15531,-0.35402 1.15531,-0.35403 z M 172.66667,103.33333 172,102.66667 171.33333,103.33333 170.66667,104 H 172 173.33333 Z M 164.81642,100.25 164.5,97.5 l -2,0.200458 -2,0.200457 -3.94847,-1.042444 -3.94847,-1.042444 -12.05153,-7.530994 -12.05153,-7.530994 -9.2242,-6.359484 -9.2242,-6.359484 -1.03976,1.942806 -1.03976,1.942806 5.56702,3.561178 5.56702,3.561179 14.69694,9.191714 14.69694,9.191715 5,2.768651 5,2.76865 3.31642,0.0181 3.31642,0.0181 z m 11.91275,2.14583 -0.60417,-0.60416 -1.3125,0.52522 -1.3125,0.52522 1.91667,0.0789 1.91666,0.079 z m 2.9375,-1.0625 L 179,100.66667 178.33333,101.33333 177.66667,102 H 179 h 1.33333 z m 58.83531,-3.226632 9.99802,-1.893302 12.5,-1.665524 12.5,-1.665524 2.25,-0.460226 2.25,-0.460226 v -1.41129 -1.41129 L 250.58274,89.319658 223.16548,89.5 l -0.57982,0.580418 -0.57983,0.580418 1.59109,4.669582 L 225.188,100 h 1.65798 1.65798 z m 41.43725,-20.72827 2.13678,-3.621573 -1.64511,0.631287 -1.64511,0.631287 -10.13951,2.570234 -10.13951,2.570234 -0.42005,0.420051 L 257.66667,81 h 10.06789 10.06789 z"
       id="path1" />
  </g>
</svg>
